<svg viewBox="0 0 522 413" fill="none" xmlns="http://www.w3.org/2000/svg">
<g clip-path="url(#clip0_6_3)">
<path d="M478.023 394C479.523 403.5 495.023 414 502.523 412.5C510.023 411 511.13 409.154 515.023 405C519.443 400.283 522.023 390 522.023 390C522.023 390 521.742 356.47 521.023 335C519.456 288.254 515.022 262.229 513.023 215.5C509.476 132.589 514.523 5 513.023 3C511.523 1 509.523 0 508.023 0H508.023C506.523 0 505.96 0 502.023 4.5C498.085 9.00005 492.197 18.7333 487.023 28.5C481.537 38.8541 478.905 44.9444 475.023 56C469.829 70.7905 468.023 77 465.523 95C463.023 113 464.023 192 465.523 199.5C467.023 207 469.349 207.552 474.023 210C478.706 212.453 486.023 210 487.523 211C489.023 212 479.278 284.618 478.023 332C477.381 356.204 476.523 384.5 478.023 394Z" fill="#C6C6C6"/>
<path d="M66.5 393.943C64 408.443 44 412.943 44 412.943V19.4429C44 19.4429 49.5 20.4429 52 25.4429C54.5 30.443 53 109.943 55.5 115.443C58 120.943 59.8228 120.67 63.5 120.443C66.853 120.236 69 118.443 70.5 115.443C72 112.443 66 28.443 66.5 25.4429C67 22.4429 73 19.4429 73 19.4429C73 19.4429 76.5 17.4429 81 21.9429C85.5 26.443 88 109.443 88.5 130.443C89 151.443 88.0019 145.499 84 153.943C78.322 165.923 59.5 177.443 59.5 177.443C59.5 177.443 55.5 180.943 55.5 186.943C55.5 192.943 69 379.443 66.5 393.943Z" fill="#C6C6C6"/>
<path d="M22.1189 393.943C24.6189 408.443 44.6189 412.943 44.6189 412.943V19.4429C44.6189 19.4429 39.1189 20.4429 36.6189 25.4429C34.1189 30.443 35.6189 109.943 33.1189 115.443C30.6189 120.943 28.7961 120.67 25.1189 120.443C21.7659 120.236 19.6189 118.443 18.1189 115.443C16.6189 112.443 22.6189 28.443 22.1189 25.4429C21.6189 22.4429 15.6189 19.4429 15.6189 19.4429C15.6189 19.4429 12.1189 17.4429 7.6189 21.9429C3.1189 26.443 0.618896 109.443 0.1189 130.443C-0.381096 151.443 0.617043 145.499 4.6189 153.943C10.2969 165.923 29.1189 177.443 29.1189 177.443C29.1189 177.443 33.1189 180.943 33.1189 186.943C33.1189 192.943 19.6189 379.443 22.1189 393.943Z" fill="#C6C6C6"/>
<path d="M444 244.5C444 337.56 368.56 413 275.5 413C182.44 413 107 337.56 107 244.5C107 151.44 182.44 76 275.5 76C368.56 76 444 151.44 444 244.5ZM186.285 244.5C186.285 293.772 226.228 333.715 275.5 333.715C324.772 333.715 364.715 293.772 364.715 244.5C364.715 195.228 324.772 155.285 275.5 155.285C226.228 155.285 186.285 195.228 186.285 244.5Z" fill="#C6C6C6"/>
<ellipse cx="275.5" cy="246" rx="97.5" ry="98" fill="#B0B0B0"/>
<circle cx="275.5" cy="244.5" r="98.5" stroke="#C6C6C6" stroke-width="10"/>
<circle cx="275.5" cy="244.5" r="98.5" stroke="url(#paint0_radial_6_3)" stroke-opacity="0.2" stroke-width="10"/>
<circle cx="275.5" cy="244.5" r="163.5" stroke="#C6C6C6" stroke-width="10"/>
</g>
<defs>
<radialGradient id="paint0_radial_6_3" cx="0" cy="0" r="1" gradientUnits="userSpaceOnUse" gradientTransform="translate(275.5 244.5) rotate(90) scale(103.5)">
<stop stop-color="white"/>
<stop offset="0.800946"/>
<stop offset="1" stop-opacity="0"/>
</radialGradient>
<clipPath id="clip0_6_3">
<rect width="522" height="413" fill="white"/>
</clipPath>
</defs>
</svg>
