<svg viewBox="0 0 200 200" fill="none" xmlns="http://www.w3.org/2000/svg">
<path d="M40.2047 44.3006C42.3495 44.3006 45 41.838 45 39.0636V8.51471C45 6.19662 48.3551 5.04682 50.5 5.04681C52.6448 5.04682 56 6.19661 56 8.51471V39.0636C56 41.838 58.6504 44.324 60.7953 44.324C62.9402 44.324 66.3719 42.3609 66.3719 39.087V8.53812C66.3719 6.35555 68.5244 5.23589 70.6617 5.04681C73.0687 4.83388 79 6.05674 79 8.51471C79 16.8066 79.429 33.8266 79 49.5375C78.886 53.714 78.6577 56.3473 76.8551 60.0114C73.462 66.9086 64.2422 67.6513 59.9374 74L41.0626 73.9766C36.7577 67.6279 27.5379 66.932 24.1448 60.0348C22.3422 56.3707 22.114 53.7374 22 49.5609C21.571 33.8501 22 16.83 22 8.53813C22 6.08015 27.9313 4.81048 30.3383 5.02341C32.4756 5.21249 34.628 6.33215 34.628 8.51471V39.0636C34.628 42.3374 38.0598 44.3006 40.2047 44.3006Z" fill="currentColor"/>
<path d="M64.4999 70H36.9999C35.8953 70 34.9999 70.8954 34.9999 72V146C34.9999 166 51.4999 179 56.9999 183.5C62.4999 188 90.9999 204 94.9999 187.5C98.9999 171 88.9999 168.5 79.9999 162.5C70.9999 156.5 66.9999 147 66.4999 141.5L66.4999 72C66.4999 70.8954 65.6045 70 64.4999 70Z" fill="currentColor"/>
<path d="M135.407 70H162.907C164.011 70 164.907 70.8954 164.907 72V146C164.907 166 148.407 179 142.907 183.5C137.407 188 108.907 204 104.907 187.5C100.907 171 110.907 168.5 119.907 162.5C128.907 156.5 132.907 147 133.407 141.5L133.407 72C133.407 70.8954 134.302 70 135.407 70Z" fill="currentColor"/>
<path d="M121.464 34.6545C122.476 27.4536 123.91 22.8983 128.148 16.9891C131.017 12.989 134.366 10.5226 138.06 8.06728C143.588 4.39282 149 5.04474 149 5.04474C149 5.04474 154.972 4.87027 160.5 8.54473C164.194 11 167.772 13.4664 170.641 17.4665C174.878 23.3757 176.313 27.931 177.325 35.132C178.371 42.5751 177.678 47.2309 174.938 54.2298C171.133 63.9479 160.276 69.9855 157.412 73.8051H141.517C138.652 69.9855 127.656 63.4705 123.851 53.7524C121.111 46.7535 120.418 42.0976 121.464 34.6545Z" fill="currentColor"/>
</svg>
