<svg viewBox="0 0 42 36" fill="none" xmlns="http://www.w3.org/2000/svg">
<path d="M22.5761 33.9138C31.6624 33.9138 39.0283 26.7696 39.0283 17.9569C39.0283 9.14414 31.6624 2 22.5761 2C19.738 2 17.0677 2.69701 14.7373 3.92417" stroke="currentColor" stroke-width="4" stroke-linecap="round"/>
<path d="M4.91159 27.6478C7.35087 30.0871 11.6704 32.7296 11.8737 32.5771C12.0769 32.4247 10.2475 25.0052 9.12949 20.3808C8.45067 17.5729 7.1984 13.3171 7.50332 13.1646C7.80823 13.0122 9.18544 16.5896 10.095 18.8563C11.0417 21.2153 11.483 22.5881 12.2294 25.0052C13.2774 28.3994 14.2113 33.7968 14.4146 33.7968C14.781 33.7968 15.3981 31.7939 16.0916 30.5444C17.0512 28.8153 17.6949 27.9073 18.7341 26.2249C19.8013 24.4971 21.8594 21.9562 22.0881 22.1086C22.2406 22.2102 15.685 33.5427 15.8883 33.7968C15.8883 33.7968 16.0044 34.0001 16.7522 34C17.5 34 20.716 31.3575 22.7996 29.3248C24.1312 28.0256 24.6794 26.9054 25.4421 25.2085C26.1428 23.6495 26.3304 22.771 26.6109 21.1431C26.9448 19.2053 26.9889 16.6711 26.8142 16.1121C26.6395 15.5531 22.7861 16.4817 20.5127 17.5858C19.0472 18.2976 17.3298 20.0598 17.0571 19.9234C16.8538 19.8218 16.6175 16.733 15.9391 14.8924C15.2525 13.0296 14.6211 12.1339 13.489 10.528L13.449 10.4713C12.0161 8.43848 10.9589 7.52382 9.18031 5.84683C7.71053 4.46103 5.82632 2.9502 4.96241 2.9502C4.09851 2.9502 2.63382 5.76635 1.71006 7.87955C0.855947 9.8334 0.535149 11.0533 0.236335 13.1646C-0.0197603 14.9741 -0.0889081 16.0274 0.134695 17.8399C0.412139 20.0888 0.837532 21.3582 1.86251 23.3791C2.78917 25.2061 3.46299 26.1992 4.91159 27.6478Z" fill="currentColor"/>
</svg>
