<svg viewBox="0 0 392 392" fill="none" xmlns="http://www.w3.org/2000/svg">
<path d="M196.141 0C211.061 6.14834e-05 225.741 3.75772 238.827 10.9258C248.463 16.2041 257.005 23.2083 264.049 31.5537C274.994 30.5786 286.06 31.6367 296.679 34.7158C311.076 38.8907 324.184 46.6405 334.782 57.2432C345.381 67.8458 353.125 80.9573 357.298 95.3574C360.376 105.981 361.433 117.051 360.457 128C368.802 135.048 375.804 143.594 381.08 153.234C388.244 166.324 392 181.007 392 195.93C392 210.853 388.245 225.536 381.08 238.626C375.803 248.268 368.799 256.815 360.452 263.863C361.42 274.791 360.363 285.839 357.294 296.441C353.132 310.819 345.409 323.913 334.839 334.509C324.269 345.105 311.195 352.861 296.829 357.056C286.239 360.148 275.199 361.228 264.274 360.284C257.227 368.674 248.67 375.717 239.008 381.024C225.899 388.225 211.185 392 196.229 392C181.274 392 166.56 388.225 153.451 381.024C143.796 375.721 135.243 368.684 128.199 360.302C117.285 361.265 106.252 360.208 95.6631 357.14C81.2885 352.975 68.1985 345.247 57.6064 334.673C47.0144 324.099 39.2626 311.021 35.0703 296.652C31.9815 286.066 30.9001 275.031 31.8408 264.11C23.4191 257.061 16.3482 248.49 11.0195 238.808C3.79084 225.673 0 210.923 0 195.93C5.65795e-05 180.937 3.79089 166.187 11.0195 153.053C16.3484 143.37 23.4186 134.798 31.8408 127.748C30.9003 116.828 31.9816 105.793 35.0703 95.207C39.2626 80.8385 47.0144 67.7605 57.6064 57.1865C68.1985 46.6126 81.2886 38.8844 95.6631 34.7197C106.261 31.6493 117.303 30.5913 128.227 31.5586C135.271 23.2108 143.815 16.2052 153.453 10.9258C166.54 3.7576 181.22 0 196.141 0ZM103.4 100.634L164.083 315.5H230.634L283.8 100.634H235.583L219.083 174.7L203.5 252.434L187 174.7L171.05 100.634H103.4Z" fill="currentColor"/>
</svg>
