<svg viewBox="0 0 392 414" fill="none" xmlns="http://www.w3.org/2000/svg">
<path d="M166.083 337L105.4 122.133H173.05L189 196.2L205.5 273.933L221.083 196.2L237.583 122.133H285.8L232.633 337H166.083Z" fill="currentColor"/>
<path d="M50.7075 157.092C48.1029 145.355 48.5028 133.15 51.8702 121.609C55.2375 110.068 61.4632 99.5642 69.9701 91.0718C78.4769 82.5794 88.9895 76.3733 100.533 73.0288C112.077 69.6843 124.277 69.3098 136.004 71.9399C142.459 61.8413 151.351 53.5307 161.86 47.774C172.37 42.0174 184.159 39 196.14 39C208.122 39 219.911 42.0174 230.42 47.774C240.93 53.5307 249.822 61.8413 256.276 71.9399C268.021 69.2983 280.243 69.6712 291.805 73.0238C303.367 76.3764 313.893 82.5998 322.405 91.1152C330.917 99.6306 337.138 110.161 340.49 121.728C343.841 133.294 344.214 145.521 341.573 157.27C351.668 163.727 359.975 172.623 365.729 183.136C371.484 193.65 374.5 205.444 374.5 217.43C374.5 229.416 371.484 241.21 365.729 251.724C359.975 262.237 351.668 271.133 341.573 277.59C344.202 289.321 343.828 301.527 340.485 313.075C337.141 324.623 330.938 335.14 322.449 343.65C313.96 352.16 303.46 358.388 291.924 361.757C280.387 365.126 268.187 365.526 256.455 362.92C250.009 373.057 241.11 381.404 230.582 387.186C220.055 392.968 208.239 396 196.229 396C184.22 396 172.404 392.968 161.877 387.186C151.349 381.404 142.45 373.057 136.004 362.92C124.277 365.55 112.077 365.176 100.533 361.831C88.9895 358.487 78.4769 352.281 69.9701 343.788C61.4632 335.296 55.2375 324.792 51.8702 313.251C48.5028 301.71 48.1029 289.505 50.7075 277.768C40.5353 271.328 32.1566 262.419 26.3506 251.869C20.5446 241.32 17.5 229.473 17.5 217.43C17.5 205.387 20.5446 193.54 26.3506 182.991C32.1566 172.441 40.5353 163.532 50.7075 157.092Z" stroke="currentColor" stroke-width="35" stroke-linecap="round" stroke-linejoin="round"/>
</svg>
