<svg width="362" height="334" viewBox="0 0 362 334" fill="none" xmlns="http://www.w3.org/2000/svg">
<path d="M190.112 323.849C279.513 323.849 351.986 253.557 351.986 166.849C351.986 80.1399 279.513 9.84863 190.112 9.84863C162.188 9.84863 135.915 16.7065 112.986 28.7806" stroke="#22C55E" stroke-width="19" stroke-linecap="round"/>
<path d="M48.4859 262.349C72.486 286.349 114.986 312.349 116.986 310.849C118.986 309.349 100.986 236.349 89.9859 190.849C83.3069 163.222 70.9858 121.349 73.9859 119.849C76.986 118.349 90.5363 153.547 99.4859 175.849C108.8 199.059 113.143 212.566 120.486 236.349C130.798 269.744 139.986 322.849 141.986 322.849C145.592 322.849 151.663 303.142 158.486 290.849C167.928 273.836 174.261 264.902 184.486 248.349C194.986 231.349 215.236 206.349 217.486 207.849C218.986 208.849 154.486 320.349 156.486 322.849L164.986 324.849C164.986 324.849 203.986 298.849 224.486 278.849C237.588 266.066 242.982 255.045 250.486 238.349C257.38 223.009 259.226 214.366 261.986 198.349C265.271 179.283 265.705 154.349 263.986 148.849C262.267 143.349 224.353 152.486 201.986 163.349C187.566 170.352 170.669 187.69 167.986 186.349C165.986 185.349 163.661 154.958 156.986 136.849C150.23 118.52 144.018 109.707 132.879 93.9064L132.486 93.3486C118.388 73.348 107.986 64.3486 90.4859 47.8486C76.0247 34.2138 57.4859 19.3486 48.9859 19.3486C40.4859 19.3486 26.0749 47.0568 16.9859 67.8486C8.58232 87.0726 5.42599 99.0752 2.48595 119.849C-0.033778 137.652 -0.714124 148.015 1.48591 165.849C4.21569 187.976 8.40114 200.465 18.4859 220.349C27.6034 238.325 34.2331 248.096 48.4859 262.349Z" fill="#22C55E"/>
</svg>
