<svg width="405" height="354" viewBox="0 0 405 354" fill="none" xmlns="http://www.w3.org/2000/svg">
<path d="M223.126 334C312.527 334 385 263.709 385 177C385 90.2913 312.527 20 223.126 20C195.202 20 168.929 26.8579 146 38.9319" stroke="#17AF4F" stroke-width="40" stroke-linecap="round"/>
<path d="M49.3253 272.349C73.3253 296.349 115.825 322.349 117.825 320.849C119.825 319.349 101.825 246.349 90.8253 200.849C84.1462 173.222 71.8252 131.349 74.8253 129.849C77.8253 128.349 91.3757 163.547 100.325 185.849C109.64 209.059 113.982 222.566 121.325 246.349C131.637 279.744 140.825 332.849 142.825 332.849C146.431 332.849 152.502 313.142 159.325 300.849C168.767 283.836 175.101 274.902 185.325 258.349C195.825 241.349 216.075 216.349 218.325 217.849C219.825 218.849 155.325 330.349 157.325 332.849L165.825 334.849C165.825 334.849 204.825 308.849 225.325 288.849C238.427 276.066 243.822 265.045 251.325 248.349C258.219 233.009 260.065 224.366 262.825 208.349C266.11 189.283 266.544 164.349 264.825 158.849C263.107 153.349 225.193 162.486 202.825 173.349C188.405 180.352 171.509 197.69 168.825 196.349C166.825 195.349 164.5 164.958 157.825 146.849C151.07 128.52 144.857 119.707 133.718 103.906L133.325 103.349C119.227 83.348 108.825 74.3486 91.3253 57.8486C76.864 44.2138 58.3253 29.3486 49.8253 29.3486C41.3253 29.3486 26.9142 57.0568 17.8253 77.8486C9.42168 97.0726 6.26534 109.075 3.32531 129.849C0.805578 147.652 0.125231 158.015 2.32526 175.849C5.05504 197.976 9.24049 210.465 19.3253 230.349C28.4427 248.325 35.0724 258.096 49.3253 272.349Z" fill="#17AF4F" stroke="#17AF4F"/>
</svg>
