<svg width="363" height="334" viewBox="0 0 363 334" fill="none" xmlns="http://www.w3.org/2000/svg">
<path d="M191.112 323.849C280.513 323.849 352.986 253.557 352.986 166.849C352.986 80.1399 280.513 9.84863 191.112 9.84863C163.188 9.84863 136.915 16.7065 113.986 28.7806" stroke="#17AF4F" stroke-width="19" stroke-linecap="round"/>
<path d="M49.4859 262.349C73.486 286.349 115.986 312.349 117.986 310.849C119.986 309.349 101.986 236.349 90.9859 190.849C84.3069 163.222 71.9858 121.349 74.9859 119.849C77.986 118.349 91.5363 153.547 100.486 175.849C109.8 199.059 114.143 212.566 121.486 236.349C131.798 269.744 140.986 322.849 142.986 322.849C146.592 322.849 152.663 303.142 159.486 290.849C168.928 273.836 175.261 264.902 185.486 248.349C195.986 231.349 216.236 206.349 218.486 207.849C219.986 208.849 155.486 320.349 157.486 322.849L165.986 324.849C165.986 324.849 204.986 298.849 225.486 278.849C238.588 266.066 243.982 255.045 251.486 238.349C258.38 223.009 260.226 214.366 262.986 198.349C266.271 179.283 266.705 154.349 264.986 148.849C263.267 143.349 225.353 152.486 202.986 163.349C188.566 170.352 171.669 187.69 168.986 186.349C166.986 185.349 164.661 154.958 157.986 136.849C151.23 118.52 145.018 109.707 133.879 93.9064L133.486 93.3486C119.388 73.348 108.986 64.3486 91.4859 47.8486C77.0247 34.2138 58.4859 19.3486 49.9859 19.3486C41.4859 19.3486 27.0749 47.0568 17.9859 67.8486C9.58232 87.0726 6.42599 99.0752 3.48595 119.849C0.966222 137.652 0.285876 148.015 2.48591 165.849C5.21569 187.976 9.40114 200.465 19.4859 220.349C28.6034 238.325 35.2331 248.096 49.4859 262.349Z" fill="#17AF4F" stroke="#17AF4F"/>
</svg>
