<svg width="381" height="312" viewBox="0 0 381 312" fill="none" xmlns="http://www.w3.org/2000/svg">
<path d="M223.486 110.349C205.986 148.349 194.486 217.349 190.986 217.349C184.883 217.349 186.486 174.849 177.986 148.349C171.197 127.182 170.24 114.071 159.986 94.3487C148.239 71.7543 138.766 60.4863 119.486 43.8487C97.1371 24.5623 79.9898 17.0281 51.4861 9.34868C34.9278 4.88762 14.986 -1.65133 9.48605 1.84869C3.98609 5.3487 3.67268 16.158 2.48605 25.8487C-0.513993 50.3487 -0.130236 64.0675 4.48605 87.8487C9.42024 113.268 14.8984 128.123 28.986 149.849C43.5599 172.324 56.4556 181.709 77.486 197.849C98.986 214.349 145.486 227.926 150.486 224.849C152.779 223.437 134.472 185.656 122.486 161.349C103.098 122.031 65.986 64.3487 65.986 64.3487C65.986 64.3487 112.986 106.349 132.486 140.849C149.511 170.969 159.739 188.151 169.486 221.349C174.88 239.721 175.986 251.849 179.486 269.349C182.889 286.364 180.486 311.849 192.486 311.849C204.486 311.849 200.019 285.655 204.486 269.349C209.66 250.463 212.148 239.698 218.986 221.349C231.306 188.29 241.001 171.422 260.986 142.349C276.991 119.066 306.986 85.8487 306.986 85.8487C306.986 85.8487 280.582 131.28 265.486 161.349C253.884 184.457 234.986 218.849 237.986 220.849C239.986 222.182 289.518 200.551 316.486 176.349C335.986 158.849 345.124 146.686 357.486 123.349C372.717 94.5945 375.986 66.3487 378.986 43.8487C380.671 31.2145 381.486 13.8487 376.986 10.3487C371.335 5.95351 338.962 12.8921 316.486 21.3487C292.194 30.4888 278.663 38.3252 259.986 56.3487C241.67 74.0241 234.133 87.2288 223.486 110.349Z" fill="#22C55E"/>
</svg>
