<svg viewBox="0 0 38 31" fill="none" xmlns="http://www.w3.org/2000/svg">
<path d="M22.3063 10.9143C20.5552 14.7022 19.4045 21.5802 19.0543 21.5802C18.4436 21.5802 18.604 17.3437 17.7535 14.7022C17.0742 12.5922 16.9785 11.2854 15.9524 9.3194C14.7769 7.06717 13.8291 5.94397 11.8999 4.28552C9.66367 2.36303 7.94789 1.61202 5.09577 0.846526C3.43893 0.401843 1.44353 -0.249965 0.893194 0.0989196C0.342861 0.447804 0.311502 1.52528 0.192766 2.49126C-0.107422 4.93344 -0.0690229 6.30095 0.392888 8.67148C0.88661 11.2053 1.43476 12.686 2.84438 14.8517C4.30266 17.0921 5.59303 18.0276 7.69735 19.6364C9.84867 21.2811 14.5015 22.6345 15.0018 22.3278C15.2313 22.1871 13.3995 18.421 12.2001 15.998C10.2601 12.0788 6.54665 6.32898 6.54665 6.32898C6.54665 6.32898 11.2495 10.5156 13.2007 13.9546C14.9042 16.957 15.9277 18.6697 16.903 21.9789C17.4427 23.8102 17.5534 25.0191 17.9036 26.7636C18.2441 28.4596 18.0037 31 19.2044 31C20.4051 31 19.9581 28.389 20.4051 26.7636C20.9228 24.881 21.1718 23.8079 21.856 21.9789C23.0888 18.6836 24.0589 17.0022 26.0586 14.1041C27.66 11.7832 30.6614 8.47212 30.6614 8.47212C30.6614 8.47212 28.0194 13.0008 26.5089 15.998C25.348 18.3015 23.457 21.7297 23.7572 21.929C23.9573 22.0619 28.9136 19.9057 31.612 17.4932C33.5632 15.7488 34.4776 14.5364 35.7145 12.2101C37.2386 9.3439 37.5656 6.52834 37.8658 4.28552C38.0344 3.02613 38.116 1.29509 37.6657 0.946207C37.1003 0.508092 33.861 1.19974 31.612 2.0427C29.1812 2.95379 27.8274 3.73493 25.9585 5.53153C24.1258 7.29343 23.3717 8.60968 22.3063 10.9143Z" fill="currentColor"/>
</svg>
