<svg viewBox="0 0 38 36" fill="none" xmlns="http://www.w3.org/2000/svg">
<path d="M18.2446 33.3491C27.0929 33.8429 34.6541 27.2861 35.1329 18.7042C35.6118 10.1223 28.827 2.76502 19.9787 2.2713C18.2836 2.17672 16.6357 2.34089 15.0758 2.72849" stroke="currentColor" stroke-width="4" stroke-linecap="round"/>
<path d="M8.954 31.2518C9.26946 31.7032 9.16154 35.5102 9.73614 35.4015C10.4238 35.2715 10.8658 34.9949 11.1178 34.564C11.3341 34.1944 11.1824 31.1039 11.1251 29.1413C11.0576 26.8286 10.9076 25.722 10.6616 23.3231C10.3253 20.0448 9.91444 18.1118 9.13848 14.7385C8.47219 11.842 7.06793 7.57599 7.28943 7.50222C7.51093 7.42846 8.5049 8.60341 8.954 9.47694C9.9206 11.357 10.4348 12.3752 10.9385 14.3231C11.6287 16.9925 12.2584 19.6817 12.6 22.6308C13.008 26.152 12.7403 31.1081 13.1539 31.2518C13.8462 31.4924 15.3766 29.6432 16.6788 28.0313C17.8002 26.6433 18.4288 25.7962 19.0863 24.1374C20.0025 21.8264 20.217 20.5285 20.2482 18.1891C20.2823 15.6325 19.6133 13.7262 18.4448 11.449C17.2544 9.12904 16.1619 8.04549 14.1166 6.42556C11.8606 4.63872 10.2737 4.14958 7.51502 3.23034C5.78769 2.65475 3.54006 1.79431 2.90326 2.04452C2.76681 2.09813 2.64326 5.3333 2.26206 7.40775C1.86143 9.58797 1.49138 10.7824 0.87058 12.9103C0.186139 15.2563 -0.166884 16.8546 0.0773468 19.2878C0.277662 21.2834 0.858969 22.5542 1.73347 24.3137C2.7552 26.3693 3.64468 27.1809 5.2618 28.6467C6.56916 29.8318 8.62352 30.7788 8.954 31.2518Z" fill="currentColor"/>
</svg>
