<svg viewBox="0 0 32 29" fill="none" xmlns="http://www.w3.org/2000/svg">
<path d="M3.75494 22.9128C3.48609 23.4866 -0.412259 25.5849 0.0358235 26.0908C0.572084 26.6963 1.11123 26.9736 1.69374 26.9736C2.19354 26.9736 5.21723 25.0332 7.1604 23.8397C9.45021 22.4333 10.6245 21.6769 12.8959 20.0437C16 17.8118 17.6623 16.5423 20.603 13.8201C23.128 11.4827 26.4921 7.33157 26.697 7.50813C26.9018 7.6847 26.1472 9.2059 25.5319 10.1565C24.2078 12.2025 23.2794 13.1371 21.7143 14.8574C19.5775 17.206 17.7125 18.5677 14.8571 20.6778C11.5507 23.1213 5.68171 26.2232 5.68171 26.7529C5.68171 27.0177 9.16053 28.3395 11.5516 28.695C13.6107 29.0012 14.8344 29.1328 16.8929 28.823C19.7606 28.3914 21.1945 27.852 23.5693 26.5278C26.1647 25.0807 27.6907 23.3141 29.2959 20.8382C30.9312 18.3159 31.3788 16.6067 31.8052 13.6435C32.2754 10.375 31.8329 8.52058 31.133 5.25703C30.6948 3.21354 30.2369 0.489955 29.6095 0.00443795C29.4751 -0.0995995 26.1435 1.65203 23.8292 2.47624C21.397 3.34248 19.9757 3.66801 17.4664 4.28596C14.6999 4.96726 12.8819 5.54354 10.5748 7.19472C8.68266 8.549 7.7452 9.86059 6.48827 11.7455C5.01975 13.9478 4.7265 15.2984 4.20302 17.7485C3.77982 19.7292 4.0366 22.3116 3.75494 22.9128Z" fill="currentColor"/>
</svg>
