<svg viewBox="0 0 392 392" fill="none" xmlns="http://www.w3.org/2000/svg">
<path d="M50.7075 135.592C48.1029 123.855 48.5028 111.65 51.8702 100.109C55.2375 88.5679 61.4632 78.0642 69.9701 69.5718C78.4769 61.0794 88.9895 54.8733 100.533 51.5288C112.077 48.1843 124.277 47.8098 136.004 50.4399C142.459 40.3413 151.351 32.0307 161.86 26.274C172.37 20.5174 184.159 17.5 196.14 17.5C208.122 17.5 219.911 20.5174 230.42 26.274C240.93 32.0307 249.822 40.3413 256.276 50.4399C268.021 47.7983 280.243 48.1712 291.805 51.5238C303.367 54.8764 313.893 61.0998 322.405 69.6152C330.917 78.1306 337.138 88.6614 340.49 100.228C343.841 111.794 344.214 124.021 341.573 135.77C351.668 142.227 359.975 151.123 365.729 161.636C371.484 172.15 374.5 183.944 374.5 195.93C374.5 207.916 371.484 219.71 365.729 230.224C359.975 240.737 351.668 249.633 341.573 256.09C344.202 267.821 343.828 280.027 340.485 291.575C337.141 303.123 330.938 313.64 322.449 322.15C313.96 330.66 303.46 336.888 291.924 340.257C280.387 343.626 268.187 344.026 256.455 341.42C250.009 351.557 241.11 359.904 230.582 365.686C220.055 371.468 208.239 374.5 196.229 374.5C184.22 374.5 172.404 371.468 161.877 365.686C151.349 359.904 142.45 351.557 136.004 341.42C124.277 344.05 112.077 343.676 100.533 340.331C88.9895 336.987 78.4769 330.781 69.9701 322.288C61.4632 313.796 55.2375 303.292 51.8702 291.751C48.5028 280.21 48.1029 268.005 50.7075 256.268C40.5353 249.828 32.1566 240.919 26.3506 230.369C20.5446 219.82 17.5 207.973 17.5 195.93C17.5 183.887 20.5446 172.04 26.3506 161.491C32.1566 150.941 40.5353 142.032 50.7075 135.592Z" stroke="currentColor" stroke-width="35" stroke-linecap="round" stroke-linejoin="round"/>
<path d="M130.457 266.605C149.308 285.381 182.69 305.721 184.261 304.547C185.832 303.374 171.694 246.264 163.054 210.669C157.808 189.056 148.13 156.297 150.487 155.124C152.843 153.95 163.486 181.487 170.516 198.934C177.832 217.092 181.242 227.659 187.01 246.264C195.11 272.391 202.327 313.935 203.898 313.935C206.73 313.935 211.499 298.519 216.858 288.901C224.274 275.592 229.249 268.603 237.28 255.652C245.527 242.353 261.432 222.795 263.2 223.968C264.378 224.75 213.716 311.98 215.287 313.935L221.963 315.5C221.963 315.5 252.596 295.16 268.698 279.513C278.989 269.513 283.226 260.891 289.12 247.829C294.535 235.829 295.985 229.067 298.153 216.536C300.733 201.62 301.073 182.114 299.723 177.811C298.373 173.508 268.594 180.656 251.025 189.155C239.699 194.633 226.427 208.198 224.32 207.148C222.749 206.366 220.922 182.591 215.679 168.423C210.373 154.084 205.493 147.189 196.745 134.828L196.436 134.392C185.362 118.745 177.192 111.705 163.447 98.7962C152.088 88.1293 137.527 76.5 130.85 76.5C124.174 76.5 112.855 98.1768 105.716 114.443C99.1149 129.482 96.6357 138.872 94.3264 155.124C92.3473 169.052 91.8129 177.159 93.5409 191.11C95.6851 208.421 98.9726 218.192 106.894 233.747C114.055 247.811 119.262 255.454 130.457 266.605Z" fill="currentColor" stroke="currentColor"/>
</svg>
