<svg width="338" height="363" viewBox="0 0 338 363" fill="none" xmlns="http://www.w3.org/2000/svg">
<path d="M166.126 324C255.527 324 328 253.709 328 167C328 80.2913 255.527 10 166.126 10C148.999 10 132.494 12.5797 117 17.3604" stroke="#17AF4F" stroke-width="19" stroke-linecap="round"/>
<path d="M92.3246 319.496C95.5069 324.051 94.4182 362.455 100.215 361.359C107.152 360.047 111.61 357.257 114.153 352.911C116.335 349.182 114.804 318.004 114.226 298.206C113.546 274.876 112.93 262.755 110.447 238.555C107.055 205.483 104.674 187.442 96.8456 153.412C90.1242 124.192 73.2979 80.6558 75.5324 79.9117C77.7669 79.1675 86.0204 91.5541 90.5509 100.366C100.302 119.333 103.344 130.41 109.571 149.728C118.072 176.101 120.268 196.064 123.822 226.739C127.937 262.26 125.865 319.824 129.886 322.177C131.897 323.353 157.116 303.269 170.252 287.008C181.565 273.006 187.906 264.461 194.539 247.727C203.781 224.414 205.945 211.32 206.26 187.721C206.604 161.93 199.855 142.699 188.067 119.726C176.059 96.3229 165.038 85.3921 144.405 69.0503C121.646 51.0247 105.637 46.0903 77.8082 36.817C60.3829 31.0104 37.7089 22.3304 31.2849 24.8545C29.9083 25.3953 28.662 58.0316 24.8165 78.9586C20.7749 100.953 17.0418 113.002 10.7792 134.468C3.87459 158.135 0.313304 174.258 2.7771 198.804C4.79787 218.936 10.6621 231.756 19.4841 249.505C29.7912 270.242 38.7643 278.429 55.0777 293.216C68.2664 305.171 88.9907 314.725 92.3246 319.496Z" fill="#17AF4F" stroke="#17AF4F" stroke-width="3"/>
</svg>
