<svg width="377" height="357" viewBox="0 0 377 357" fill="none" xmlns="http://www.w3.org/2000/svg">
<path d="M186.05 334.249C275.312 339.23 351.588 273.085 356.419 186.511C361.25 99.9372 292.805 25.7175 203.543 20.7369C186.443 19.7827 169.819 21.4389 154.083 25.349" stroke="#17AF4F" stroke-width="40" stroke-linecap="round"/>
<path d="M92.3277 313.091C95.51 317.646 94.4214 356.05 100.218 354.954C107.155 353.642 111.614 350.851 114.156 346.505C116.338 342.776 114.807 311.599 114.23 291.801C113.549 268.47 112.933 256.349 110.45 232.149C107.058 199.077 104.677 181.036 96.8488 147.006C90.1273 117.786 73.301 74.2504 75.5356 73.5063C77.7701 72.7621 86.0236 85.1487 90.554 93.9608C100.305 112.927 103.348 124.005 109.574 143.322C118.075 169.696 120.271 189.658 123.825 220.333C127.94 255.854 125.869 313.419 129.889 315.771C131.9 316.948 157.119 296.863 170.256 280.603C181.568 266.601 187.909 258.055 194.543 241.321C203.784 218.009 205.948 204.915 206.263 181.315C206.607 155.525 199.858 136.294 188.071 113.321C176.062 89.9175 165.041 78.9867 144.408 62.6449C121.649 44.6193 105.64 39.6849 77.8113 30.4116C60.3861 24.6051 37.7121 15.925 31.288 18.4491C29.9115 18.9899 28.6651 51.6263 24.8196 72.5533C20.7781 94.5472 17.045 106.597 10.7824 128.063C3.87777 151.729 0.316478 167.853 2.78027 192.398C4.80104 212.531 10.6653 225.35 19.4872 243.1C29.7943 263.837 38.7674 272.024 55.0808 286.811C68.2695 298.766 88.9939 308.32 92.3277 313.091Z" fill="#17AF4F" stroke="#17AF4F" stroke-width="3"/>
</svg>
