<svg width="308" height="284" viewBox="0 0 308 284" fill="none" xmlns="http://www.w3.org/2000/svg">
<path d="M36.1413 224.387C33.5536 230.007 -3.968 250.556 0.344801 255.51C5.5063 261.44 10.6956 264.155 16.3023 264.155C21.1128 264.155 50.2159 245.153 68.9188 233.465C90.9583 219.692 102.261 212.284 124.123 196.29C154 174.433 170 162 198.304 135.341C222.607 112.451 254.987 71.7988 256.958 73.5279C258.93 75.257 251.667 90.1543 245.745 99.4636C233 119.5 224.065 128.653 209 145.5C188.433 168.5 170.483 181.836 143 202.5C111.175 226.429 54.6865 256.807 54.6865 261.994C54.6865 264.588 88.1701 277.532 111.185 281.014C131.003 284.012 142.781 285.301 162.594 282.267C190.196 278.04 203.997 272.757 226.855 259.789C251.835 245.618 266.523 228.317 281.973 204.071C297.713 179.37 302.021 162.631 306.125 133.612C310.651 101.603 306.392 83.443 299.655 51.4826C295.438 31.4705 291.03 4.79818 284.992 0.0434613C283.698 -0.975388 251.631 16.1785 229.356 24.2501C205.946 32.7333 192.266 35.9212 168.114 41.9728C141.486 48.6448 123.988 54.2884 101.783 70.4586C83.5707 83.7212 74.5475 96.5658 62.4496 115.025C48.3151 136.592 45.4926 149.819 40.4541 173.813C36.3807 193.21 38.8523 218.5 36.1413 224.387Z" fill="#17AF4F"/>
</svg>
